HIERARCHY
ROOT Hips
{
	OFFSET 0.000000 0.000000 0.000000
	CHANNELS 6 Xposition Yposition Zposition Zrotation Yrotation Xrotation 
	JOINT LHipJoint
	{
		OFFSET 0.000000 0.000000 0.000000
		CHANNELS 3 Zrotation Yrotation Xrotation
		JOINT LeftUpLeg
		{
			OFFSET 1.363060 -1.794630 0.839290
			CHANNELS 3 Zrotation Yrotation Xrotation
			JOINT LeftLeg
			{
				OFFSET 2.448110 -6.726130 0.000000
				CHANNELS 3 Zrotation Yrotation Xrotation
				JOINT LeftFoot
				{
					OFFSET 2.562200 -7.039590 0.000000
					CHANNELS 3 Zrotation Yrotation Xrotation
					JOINT LeftToeBase
					{
						OFFSET 0.157640 -0.433110 2.322550
						CHANNELS 3 Zrotation Yrotation Xrotation
						End Site
						{
							OFFSET 0.000000 0.000000 0.000000
						}
					}
				}
			}
		}
	}
	JOINT RHipJoint
	{
		OFFSET 0.000000 0.000000 0.000000
		CHANNELS 3 Zrotation Yrotation Xrotation
		JOINT RightUpLeg
		{
			OFFSET -1.305520 -1.794630 0.839290
			CHANNELS 3 Zrotation Yrotation Xrotation
			JOINT RightLeg
			{
				OFFSET -2.542530 -6.985550 0.000000
				CHANNELS 3 Zrotation Yrotation Xrotation
				JOINT RightFoot
				{
					OFFSET -2.568260 -7.056230 0.000000
					CHANNELS 3 Zrotation Yrotation Xrotation
					JOINT RightToeBase
					{
						OFFSET -0.164730 -0.452590 2.363150
						CHANNELS 3 Zrotation Yrotation Xrotation
						End Site
						{
							OFFSET 0.000000 0.000000 0.000000
						}
					}
				}
			}
		}
	}
}
MOTION
Frames: 22
Frame Time: 0.008333
-10.664332 16.744146 0.422848 -30.954804 86.837949 -14.763627 -11.068180 2.997556 -0.033576 -11.096937 -0.635259 -8.960301 -0.045995 2.073233 40.993221 2.019145 13.319487 0.028366 1.685000 -0.000000 -65.701100 8.885530 0.315086 3.085475 2.608529 1.778486 -38.761707 3.045694 0.139441 7.980011 0.685032 3.496918 6.454625 0.308500 0.000000 -56.927101
-10.422897 16.723345 0.411086 -39.460333 86.343788 -23.469599 -11.305401 2.939386 -0.178755 -10.573803 0.337735 -10.780643 0.292102 2.278145 45.124431 2.237009 14.777359 1.835569 2.285800 -0.000000 -59.904900 8.860891 0.106116 3.032184 3.329501 2.070313 -38.805055 2.954066 -0.176773 10.180725 0.623354 3.077561 7.557833 0.244600 0.000000 -55.243500
-10.185544 16.703559 0.394700 -46.155067 85.813288 -30.376267 -11.556770 2.815450 -0.332737 -10.071254 1.281517 -12.655548 0.587027 2.451719 49.155738 2.443947 16.094745 3.062854 2.791500 0.000000 -51.440600 8.803810 -0.111501 2.946275 4.121639 2.210547 -38.792902 2.881227 -0.473123 12.305704 0.580481 2.835977 8.463812 0.220500 0.000000 -53.685301
-9.952579 16.685989 0.374445 -51.611912 85.274565 -36.037712 -11.814458 2.646053 -0.487091 -9.599526 2.161286 -14.598161 0.836337 2.608870 53.012449 2.625004 17.214684 3.630077 3.132800 0.000000 -41.771800 8.718324 -0.327448 2.835822 4.950980 2.217525 -38.703755 2.834122 -0.734359 14.264220 0.554015 2.735602 9.094076 0.227600 0.000000 -52.531100
-9.724252 16.671835 0.351269 -56.315214 84.761351 -40.920393 -12.066728 2.445236 -0.628156 -9.182166 2.919660 -16.612577 1.048738 2.757190 56.625267 2.776340 18.134393 3.627512 3.298900 -0.000000 -32.791200 8.613895 -0.533978 2.705350 5.783032 2.094064 -38.534572 2.815569 -0.954554 16.011426 0.540749 2.739202 9.390110 0.254100 0.000000 -51.944899
-9.500436 16.662064 0.325322 -60.851321 84.288914 -45.592224 -12.311558 2.217108 -0.741380 -8.812742 3.512139 -18.714556 1.234772 2.898366 59.968948 2.896866 18.848735 3.156572 3.293700 -0.000000 -25.595200 8.490500 -0.734468 2.564542 6.611233 1.863883 -38.283212 2.828091 -1.130421 17.509096 0.533428 2.781709 9.332255 0.276900 -0.000000 -51.956800
-9.281153 16.657446 0.298017 -65.282510 83.892933 -50.112372 -12.534591 1.973652 -0.817214 -8.549699 3.895316 -20.891094 1.397043 3.034482 63.020050 2.988213 19.368618 2.253956 3.118400 -0.000000 -20.108601 8.363171 -0.918899 2.409304 7.386636 1.502353 -37.958790 2.866501 -1.265320 18.772559 0.530054 2.850924 8.915605 0.291600 0.000000 -52.514300
-9.065900 16.658326 0.269216 -69.941807 83.568781 -54.808524 -12.738904 1.715756 -0.847285 -8.380520 4.060088 -23.142260 1.537958 3.163256 65.763424 3.051020 19.690459 0.962267 2.780200 0.000000 -16.068500 8.227732 -1.093515 2.249146 8.107238 1.043601 -37.550515 2.928401 -1.358071 19.777157 0.521855 2.885090 8.187297 0.279900 0.000000 -53.472900
-8.854425 16.664917 0.239888 -74.792511 83.327102 -59.655419 -12.914402 1.453568 -0.832091 -8.340187 4.004156 -25.426670 1.652280 3.284108 68.159466 3.087712 19.825654 -0.710132 2.286400 0.000001 -12.678500 8.095206 -1.250182 2.079713 8.733457 0.485466 -37.046802 3.005138 -1.411504 20.533531 0.505444 2.875101 7.205912 0.244700 0.000000 -54.662100
-8.646184 16.677106 0.210249 -79.852167 83.158116 -64.683359 -13.058344 1.192151 -0.772849 -8.428341 3.740555 -27.696194 1.735980 3.392735 70.157196 3.104150 19.803560 -2.639660 1.687500 -0.000000 -9.979499 7.968794 -1.387077 1.902233 9.246218 -0.145655 -36.424591 3.088951 -1.426553 21.033071 0.476053 2.798191 6.060783 0.187400 0.000000 -55.884700
-8.440611 16.694562 0.180448 -85.054674 83.046660 -69.842856 -13.167351 0.937435 -0.676512 -8.638105 3.299778 -29.894590 1.782951 3.485475 71.707366 3.106037 19.652997 -4.717621 1.031000 -0.000000 -7.840500 7.852643 -1.501775 1.716963 9.629735 -0.820310 -35.659898 3.171338 -1.405333 21.271718 0.431325 2.643262 4.855085 0.114600 0.000000 -56.964400
-8.237125 16.716719 0.150558 -90.277617 82.977614 -75.029736 -13.237695 0.695565 -0.553833 -8.957677 2.725532 -31.963871 1.787871 3.558682 72.766931 3.099979 19.410140 -6.829087 0.365301 -0.000000 -6.192300 7.751849 -1.592380 1.523855 9.873087 -1.510093 -34.732525 3.243886 -1.351668 21.253115 0.371923 2.410566 3.694700 0.034900 0.000000 -57.777000
-8.035094 16.742782 0.120425 -95.378488 82.934120 -80.116678 -13.267728 0.470920 -0.416932 -9.365104 2.071027 -33.856310 1.748314 3.608654 73.306713 3.092505 19.113506 -8.859625 -0.265400 -0.000000 -5.048600 7.669475 -1.660149 1.325022 9.978829 -2.183625 -33.632501 3.299941 -1.270945 20.987861 0.300828 2.104747 2.678647 -0.045600 -0.000000 -58.274000
-7.833936 16.771792 0.089921 -100.204845 82.904947 -84.963569 -13.256470 0.266861 -0.277876 -9.839665 1.391911 -35.537234 1.665362 3.631800 73.312880 3.089562 18.802791 -10.705744 -0.826600 -0.000000 -4.481100 7.608595 -1.707874 1.122603 9.955874 -2.819069 -32.364420 3.334897 -1.170679 20.502039 0.223506 1.741441 1.883732 -0.122400 -0.000000 -58.488099
-7.633087 16.802580 0.058864 -104.624962 82.881844 -89.445516 -13.205221 0.085139 -0.146935 -10.359992 0.742137 -36.990160 1.542521 3.625506 72.791160 3.095167 18.508106 -12.309382 -1.302300 -0.000000 -4.397000 7.570124 -1.740787 0.919718 9.823795 -3.402323 -30.949737 3.347369 -1.059666 19.835510 0.146448 1.342922 1.356509 -0.194600 0.000000 -58.518800
-7.431993 16.833868 0.026972 -108.543235 82.859850 -93.465750 -13.117384 -0.074283 -0.030640 -10.906113 0.166573 -38.219522 1.384613 3.588403 71.764952 3.111293 18.245784 -13.659373 -1.693600 0.000000 -4.556300 7.552754 -1.765348 0.719938 9.609362 -3.929571 -29.428160 3.339299 -0.947043 19.041675 0.075843 0.936495 1.106355 -0.262600 -0.000000 -58.500600
-7.230310 16.864530 -0.005922 -111.910546 82.837087 -96.976236 -12.998244 -0.211561 0.067942 -11.461573 -0.300387 -39.233834 1.197167 3.520218 70.265470 3.137423 18.016980 -14.764373 -2.006599 0.000000 -4.768600 7.553978 -1.787889 0.524556 9.340323 -4.411837 -27.839081 3.314866 -0.841029 18.179558 0.016762 0.552613 1.110018 -0.326200 -0.000001 -58.573000
-7.027505 16.893388 -0.040094 -114.727714 82.810174 -99.964545 -12.854297 -0.328940 0.151167 -12.011124 -0.642080 -40.066629 0.984527 3.422198 68.337285 3.171343 17.803877 -15.680356 -2.259000 -0.000000 -4.698501 7.568669 -1.814011 0.336165 9.047875 -4.863561 -26.239316 3.280462 -0.747758 17.311564 -0.028294 0.215765 1.312847 -0.384700 0.000000 -58.848000
-6.823226 16.919535 -0.075773 -117.038502 82.774445 -102.463095 -12.692954 -0.428597 0.224622 -12.540474 -0.855005 -40.749681 0.750875 3.295957 66.022673 3.209107 17.578039 -16.453327 -2.462600 0.000000 -4.218300 7.590736 -1.847812 0.155560 8.759778 -5.304519 -24.673758 3.242564 -0.670312 16.489572 -0.059443 -0.059840 1.645019 -0.436399 -0.000000 -59.397800
-6.617184 16.942369 -0.113111 -118.925393 82.724124 -104.541946 -12.521153 -0.512314 0.297114 -13.038644 -0.949044 -41.315696 0.499813 3.143027 63.360521 3.246173 17.307044 -17.122281 -2.624800 -0.000000 -3.338900 7.613946 -1.891616 -0.016236 8.498367 -5.753264 -23.178155 3.206721 -0.608591 15.750949 -0.079375 -0.274592 2.030532 -0.480000 -0.000000 -60.246800
-6.409037 16.961441 -0.152326 -120.494556 82.650636 -106.290862 -12.344999 -0.581990 0.378759 -13.497446 -0.944686 -41.796937 0.233956 2.964430 60.384555 3.278716 16.961337 -17.725060 -2.751900 0.000000 -2.090800 7.631867 -1.946261 -0.177912 8.281429 -6.221491 -21.778587 3.177136 -0.559820 15.115444 -0.092844 -0.444916 2.398228 -0.516600 0.000000 -61.372300
-6.198797 16.976683 -0.193320 -121.886641 82.552015 -107.846606 -12.167210 -0.636423 0.476865 -13.922597 -0.866524 -42.199179 -0.043893 2.759782 57.111917 3.303627 16.525937 -18.261138 -2.840200 -0.000000 -0.763800 7.643043 -2.009045 -0.333251 8.108674 -6.729233 -20.477306 3.155125 -0.520796 14.590854 -0.104012 -0.586910 2.689855 -0.546800 -0.000000 -62.708600
